<svg width="70" height="70" viewBox="0 0 70 70" fill="none" xmlns="http://www.w3.org/2000/svg">
<circle cx="35" cy="35" r="35" fill="#878787" fill-opacity="0.23"/>
<path d="M31.3525 38.268C31.5492 40.3166 31.8827 41.8392 32.3416 42.8436C32.8062 43.8449 33.631 44.3443 34.8217 44.3443C35.0443 44.3443 35.2434 44.3095 35.4409 44.269C35.6432 44.3095 35.8415 44.3443 36.0658 44.3443C37.2532 44.3443 38.0804 43.8449 38.5426 42.8436C39.0039 41.8392 39.3317 40.3166 39.5325 38.268L40.5896 22.4504C40.7863 19.3674 40.8866 17.1552 40.8866 15.8124C40.8866 13.9848 40.4099 12.5586 39.4532 11.5347C38.4932 10.5107 37.2321 10 35.67 10C35.5866 10 35.5243 10.0186 35.4425 10.0219C35.3648 10.0186 35.3009 10 35.2199 10C33.6545 10 32.3959 10.5107 31.4375 11.5347C30.48 12.5602 30 13.9872 30 15.8132C30 17.156 30.0979 19.3682 30.2979 22.4512L31.3525 38.268Z" fill="#99C911"/>
<path d="M35.482 50.1259C33.9652 50.1259 32.6766 50.6043 31.6065 51.561C30.5373 52.5186 30.0015 53.6809 30.0015 55.0456C30.0015 56.5859 30.5438 57.7984 31.6203 58.679C32.7017 59.5597 33.9627 60 35.4043 60C36.8718 60 38.1515 59.5662 39.2458 58.696C40.3385 57.8283 40.8849 56.6094 40.8849 55.0472C40.8849 53.6825 40.362 52.5202 39.3162 51.5627C38.2704 50.6043 36.9924 50.1259 35.4796 50.1259" fill="#99C911"/>
</svg>
